<mxfile host="app.diagrams.net" agent="Mozilla/5.0 (Windows NT 10.0; Win64; x64) AppleWebKit/537.36 (KHTML, like Gecko) Chrome/135.0.0.0 Safari/537.36" version="26.2.4">
  <diagram name="Página-1" id="7-Zcmr8tUEQuta-JvZID">
    <mxGraphModel dx="2418" dy="1957" grid="1" gridSize="10" guides="1" tooltips="1" connect="1" arrows="1" fold="1" page="1" pageScale="1" pageWidth="827" pageHeight="1169" math="0" shadow="0">
      <root>
        <mxCell id="0" />
        <mxCell id="1" parent="0" />
        <mxCell id="8np5I3TippKVZLdokush-1" value="Usuário" style="whiteSpace=wrap;html=1;align=center;" parent="1" vertex="1">
          <mxGeometry x="320" y="660" width="100" height="40" as="geometry" />
        </mxCell>
        <mxCell id="8np5I3TippKVZLdokush-3" value="id" style="ellipse;whiteSpace=wrap;html=1;" parent="1" vertex="1">
          <mxGeometry x="430" y="665" width="30" height="10" as="geometry" />
        </mxCell>
        <mxCell id="8np5I3TippKVZLdokush-4" value="nome" style="ellipse;whiteSpace=wrap;html=1;" parent="1" vertex="1">
          <mxGeometry x="430" y="675" width="40" height="20" as="geometry" />
        </mxCell>
        <mxCell id="8np5I3TippKVZLdokush-5" value="email" style="ellipse;whiteSpace=wrap;html=1;" parent="1" vertex="1">
          <mxGeometry x="430" y="715" width="50" height="20" as="geometry" />
        </mxCell>
        <mxCell id="8np5I3TippKVZLdokush-6" value="senha" style="ellipse;whiteSpace=wrap;html=1;" parent="1" vertex="1">
          <mxGeometry x="430" y="735" width="40" height="20" as="geometry" />
        </mxCell>
        <mxCell id="8np5I3TippKVZLdokush-7" value="telefone" style="ellipse;whiteSpace=wrap;html=1;" parent="1" vertex="1">
          <mxGeometry x="430" y="755" width="50" height="20" as="geometry" />
        </mxCell>
        <mxCell id="8np5I3TippKVZLdokush-8" value="PK" style="text;html=1;align=center;verticalAlign=middle;resizable=0;points=[];autosize=1;strokeColor=none;fillColor=none;" parent="1" vertex="1">
          <mxGeometry x="460" y="655" width="40" height="30" as="geometry" />
        </mxCell>
        <mxCell id="8np5I3TippKVZLdokush-10" value="M" style="text;html=1;align=center;verticalAlign=middle;resizable=0;points=[];autosize=1;strokeColor=none;fillColor=none;" parent="1" vertex="1">
          <mxGeometry x="465" y="670" width="30" height="30" as="geometry" />
        </mxCell>
        <mxCell id="8np5I3TippKVZLdokush-11" value="M UK1" style="text;html=1;align=center;verticalAlign=middle;resizable=0;points=[];autosize=1;strokeColor=none;fillColor=none;" parent="1" vertex="1">
          <mxGeometry x="470" y="710" width="60" height="30" as="geometry" />
        </mxCell>
        <mxCell id="8np5I3TippKVZLdokush-12" value="M" style="text;html=1;align=center;verticalAlign=middle;resizable=0;points=[];autosize=1;strokeColor=none;fillColor=none;" parent="1" vertex="1">
          <mxGeometry x="470" y="730" width="30" height="30" as="geometry" />
        </mxCell>
        <mxCell id="8np5I3TippKVZLdokush-13" value="M UK2" style="text;html=1;align=center;verticalAlign=middle;resizable=0;points=[];autosize=1;strokeColor=none;fillColor=none;" parent="1" vertex="1">
          <mxGeometry x="470" y="750" width="60" height="30" as="geometry" />
        </mxCell>
        <mxCell id="8np5I3TippKVZLdokush-20" value="" style="endArrow=none;html=1;rounded=0;exitX=1;exitY=0.5;exitDx=0;exitDy=0;entryX=0;entryY=0.5;entryDx=0;entryDy=0;" parent="1" source="8np5I3TippKVZLdokush-1" target="8np5I3TippKVZLdokush-4" edge="1">
          <mxGeometry relative="1" as="geometry">
            <mxPoint x="290" y="540" as="sourcePoint" />
            <mxPoint x="450" y="540" as="targetPoint" />
          </mxGeometry>
        </mxCell>
        <mxCell id="8np5I3TippKVZLdokush-21" value="" style="endArrow=none;html=1;rounded=0;exitX=1;exitY=0.25;exitDx=0;exitDy=0;entryX=0;entryY=0;entryDx=0;entryDy=0;" parent="1" source="8np5I3TippKVZLdokush-1" target="8np5I3TippKVZLdokush-3" edge="1">
          <mxGeometry relative="1" as="geometry">
            <mxPoint x="290" y="540" as="sourcePoint" />
            <mxPoint x="450" y="540" as="targetPoint" />
          </mxGeometry>
        </mxCell>
        <mxCell id="8np5I3TippKVZLdokush-23" value="" style="endArrow=none;html=1;rounded=0;exitX=0.75;exitY=1;exitDx=0;exitDy=0;entryX=0;entryY=0.5;entryDx=0;entryDy=0;" parent="1" source="8np5I3TippKVZLdokush-1" target="8np5I3TippKVZLdokush-7" edge="1">
          <mxGeometry relative="1" as="geometry">
            <mxPoint x="440" y="700" as="sourcePoint" />
            <mxPoint x="450" y="720" as="targetPoint" />
            <Array as="points" />
          </mxGeometry>
        </mxCell>
        <mxCell id="8np5I3TippKVZLdokush-24" value="" style="endArrow=none;html=1;rounded=0;exitX=0.83;exitY=0.967;exitDx=0;exitDy=0;entryX=0;entryY=0.5;entryDx=0;entryDy=0;exitPerimeter=0;" parent="1" source="8np5I3TippKVZLdokush-1" target="8np5I3TippKVZLdokush-6" edge="1">
          <mxGeometry relative="1" as="geometry">
            <mxPoint x="290" y="540" as="sourcePoint" />
            <mxPoint x="450" y="540" as="targetPoint" />
          </mxGeometry>
        </mxCell>
        <mxCell id="8np5I3TippKVZLdokush-25" value="o" style="ellipse;whiteSpace=wrap;html=1;align=center;" parent="1" vertex="1">
          <mxGeometry x="350" y="565" width="40" height="40" as="geometry" />
        </mxCell>
        <mxCell id="8np5I3TippKVZLdokush-27" value="" style="shape=link;html=1;rounded=0;exitX=0.5;exitY=0;exitDx=0;exitDy=0;entryX=0.5;entryY=1;entryDx=0;entryDy=0;" parent="1" source="8np5I3TippKVZLdokush-1" target="8np5I3TippKVZLdokush-25" edge="1">
          <mxGeometry relative="1" as="geometry">
            <mxPoint x="290" y="380" as="sourcePoint" />
            <mxPoint x="450" y="380" as="targetPoint" />
          </mxGeometry>
        </mxCell>
        <mxCell id="8np5I3TippKVZLdokush-28" value="" style="resizable=0;html=1;whiteSpace=wrap;align=right;verticalAlign=bottom;" parent="8np5I3TippKVZLdokush-27" connectable="0" vertex="1">
          <mxGeometry x="1" relative="1" as="geometry" />
        </mxCell>
        <mxCell id="8np5I3TippKVZLdokush-29" value="Administrador" style="whiteSpace=wrap;html=1;align=center;" parent="1" vertex="1">
          <mxGeometry x="20" y="422.5" width="100" height="35" as="geometry" />
        </mxCell>
        <mxCell id="8np5I3TippKVZLdokush-30" value="&lt;u&gt;id&lt;/u&gt;" style="ellipse;whiteSpace=wrap;html=1;" parent="1" vertex="1">
          <mxGeometry x="-30" y="435" width="30" height="17.5" as="geometry" />
        </mxCell>
        <mxCell id="8np5I3TippKVZLdokush-35" value="PK" style="text;html=1;align=center;verticalAlign=middle;resizable=0;points=[];autosize=1;strokeColor=none;fillColor=none;" parent="1" vertex="1">
          <mxGeometry x="-60" y="425" width="40" height="30" as="geometry" />
        </mxCell>
        <mxCell id="8np5I3TippKVZLdokush-46" value="username" style="ellipse;whiteSpace=wrap;html=1;" parent="1" vertex="1">
          <mxGeometry x="430" y="695" width="60" height="20" as="geometry" />
        </mxCell>
        <mxCell id="8np5I3TippKVZLdokush-47" value="" style="endArrow=none;html=1;rounded=0;exitX=1;exitY=1;exitDx=0;exitDy=0;entryX=0;entryY=0.5;entryDx=0;entryDy=0;" parent="1" source="8np5I3TippKVZLdokush-1" target="8np5I3TippKVZLdokush-46" edge="1">
          <mxGeometry relative="1" as="geometry">
            <mxPoint x="430" y="690" as="sourcePoint" />
            <mxPoint x="440" y="695" as="targetPoint" />
          </mxGeometry>
        </mxCell>
        <mxCell id="8np5I3TippKVZLdokush-48" value="M UK3" style="text;html=1;align=center;verticalAlign=middle;resizable=0;points=[];autosize=1;strokeColor=none;fillColor=none;" parent="1" vertex="1">
          <mxGeometry x="480" y="690" width="60" height="30" as="geometry" />
        </mxCell>
        <mxCell id="8np5I3TippKVZLdokush-57" value="" style="endArrow=none;html=1;rounded=0;exitX=1;exitY=0.5;exitDx=0;exitDy=0;entryX=0;entryY=0.5;entryDx=0;entryDy=0;" parent="1" source="8np5I3TippKVZLdokush-30" target="8np5I3TippKVZLdokush-29" edge="1">
          <mxGeometry relative="1" as="geometry">
            <mxPoint x="60" y="442.5" as="sourcePoint" />
            <mxPoint x="220" y="442.5" as="targetPoint" />
          </mxGeometry>
        </mxCell>
        <mxCell id="8np5I3TippKVZLdokush-58" value="" style="endArrow=none;html=1;rounded=0;exitX=0.5;exitY=1;exitDx=0;exitDy=0;entryX=0;entryY=0.5;entryDx=0;entryDy=0;" parent="1" source="8np5I3TippKVZLdokush-29" target="8np5I3TippKVZLdokush-25" edge="1">
          <mxGeometry relative="1" as="geometry">
            <mxPoint x="140" y="460" as="sourcePoint" />
            <mxPoint x="300" y="460" as="targetPoint" />
            <Array as="points">
              <mxPoint x="70" y="585" />
            </Array>
          </mxGeometry>
        </mxCell>
        <mxCell id="8np5I3TippKVZLdokush-59" value="FuncionarioPrefeitura" style="whiteSpace=wrap;html=1;" parent="1" vertex="1">
          <mxGeometry x="307.5" y="360" width="125" height="40" as="geometry" />
        </mxCell>
        <mxCell id="8np5I3TippKVZLdokush-60" value="" style="endArrow=none;html=1;rounded=0;exitX=0.5;exitY=0;exitDx=0;exitDy=0;entryX=0.5;entryY=1;entryDx=0;entryDy=0;" parent="1" source="8np5I3TippKVZLdokush-25" target="8np5I3TippKVZLdokush-59" edge="1">
          <mxGeometry relative="1" as="geometry">
            <mxPoint x="290" y="460" as="sourcePoint" />
            <mxPoint x="450" y="460" as="targetPoint" />
          </mxGeometry>
        </mxCell>
        <mxCell id="8np5I3TippKVZLdokush-61" value="UsuarioDenunciante" style="whiteSpace=wrap;html=1;" parent="1" vertex="1">
          <mxGeometry x="980" y="412.5" width="120" height="35" as="geometry" />
        </mxCell>
        <mxCell id="8np5I3TippKVZLdokush-65" value="" style="endArrow=none;html=1;rounded=0;exitX=1;exitY=0.5;exitDx=0;exitDy=0;entryX=0.5;entryY=1;entryDx=0;entryDy=0;" parent="1" source="8np5I3TippKVZLdokush-25" target="8np5I3TippKVZLdokush-61" edge="1">
          <mxGeometry relative="1" as="geometry">
            <mxPoint x="400" y="460" as="sourcePoint" />
            <mxPoint x="560" y="460" as="targetPoint" />
            <Array as="points">
              <mxPoint x="740" y="585" />
              <mxPoint x="1040" y="585" />
            </Array>
          </mxGeometry>
        </mxCell>
        <mxCell id="8np5I3TippKVZLdokush-68" value="&lt;u&gt;id&lt;/u&gt;" style="ellipse;whiteSpace=wrap;html=1;" parent="1" vertex="1">
          <mxGeometry x="402.5" y="425" width="30" height="20" as="geometry" />
        </mxCell>
        <mxCell id="8np5I3TippKVZLdokush-69" value="&lt;u&gt;id&lt;/u&gt;" style="ellipse;whiteSpace=wrap;html=1;" parent="1" vertex="1">
          <mxGeometry x="1110" y="405" width="30" height="20" as="geometry" />
        </mxCell>
        <mxCell id="8np5I3TippKVZLdokush-70" value="cpf" style="ellipse;whiteSpace=wrap;html=1;" parent="1" vertex="1">
          <mxGeometry x="380" y="445" width="30" height="20" as="geometry" />
        </mxCell>
        <mxCell id="8np5I3TippKVZLdokush-75" value="" style="shape=link;html=1;rounded=0;exitX=1;exitY=0.5;exitDx=0;exitDy=0;entryX=0;entryY=0.5;entryDx=0;entryDy=0;" parent="1" source="8np5I3TippKVZLdokush-80" target="8np5I3TippKVZLdokush-59" edge="1">
          <mxGeometry relative="1" as="geometry">
            <mxPoint x="240" y="440" as="sourcePoint" />
            <mxPoint x="220" y="360" as="targetPoint" />
          </mxGeometry>
        </mxCell>
        <mxCell id="8np5I3TippKVZLdokush-76" value="N" style="resizable=0;html=1;whiteSpace=wrap;align=right;verticalAlign=bottom;" parent="8np5I3TippKVZLdokush-75" connectable="0" vertex="1">
          <mxGeometry x="1" relative="1" as="geometry">
            <mxPoint x="-17" y="10" as="offset" />
          </mxGeometry>
        </mxCell>
        <mxCell id="8np5I3TippKVZLdokush-77" value="" style="endArrow=none;html=1;rounded=0;exitX=1;exitY=0.5;exitDx=0;exitDy=0;entryX=0;entryY=0.5;entryDx=0;entryDy=0;" parent="1" source="8np5I3TippKVZLdokush-29" target="8np5I3TippKVZLdokush-80" edge="1">
          <mxGeometry relative="1" as="geometry">
            <mxPoint x="60" y="360" as="sourcePoint" />
            <mxPoint x="120" y="430" as="targetPoint" />
          </mxGeometry>
        </mxCell>
        <mxCell id="8np5I3TippKVZLdokush-78" value="N" style="text;html=1;align=center;verticalAlign=middle;resizable=0;points=[];autosize=1;strokeColor=none;fillColor=none;" parent="1" vertex="1">
          <mxGeometry x="140" y="410" width="30" height="30" as="geometry" />
        </mxCell>
        <mxCell id="8np5I3TippKVZLdokush-79" value="&lt;u&gt;municipio&lt;/u&gt;" style="ellipse;whiteSpace=wrap;html=1;" parent="1" vertex="1">
          <mxGeometry x="230" y="480" width="60" height="20" as="geometry" />
        </mxCell>
        <mxCell id="8np5I3TippKVZLdokush-80" value="cadastra" style="shape=associativeEntity;whiteSpace=wrap;html=1;align=center;" parent="1" vertex="1">
          <mxGeometry x="180" y="410" width="70" height="60" as="geometry" />
        </mxCell>
        <mxCell id="8np5I3TippKVZLdokush-81" value="secretaria" style="ellipse;whiteSpace=wrap;html=1;" parent="1" vertex="1">
          <mxGeometry x="230" y="500" width="60" height="20" as="geometry" />
        </mxCell>
        <mxCell id="8np5I3TippKVZLdokush-82" value="" style="endArrow=none;html=1;rounded=0;exitX=0.5;exitY=1;exitDx=0;exitDy=0;entryX=0;entryY=0.5;entryDx=0;entryDy=0;" parent="1" source="8np5I3TippKVZLdokush-80" target="8np5I3TippKVZLdokush-79" edge="1">
          <mxGeometry relative="1" as="geometry">
            <mxPoint x="230" y="360" as="sourcePoint" />
            <mxPoint x="390" y="360" as="targetPoint" />
          </mxGeometry>
        </mxCell>
        <mxCell id="8np5I3TippKVZLdokush-83" value="" style="endArrow=none;html=1;rounded=0;exitX=0.5;exitY=1;exitDx=0;exitDy=0;entryX=0;entryY=0.5;entryDx=0;entryDy=0;" parent="1" source="8np5I3TippKVZLdokush-80" target="8np5I3TippKVZLdokush-81" edge="1">
          <mxGeometry relative="1" as="geometry">
            <mxPoint x="230" y="360" as="sourcePoint" />
            <mxPoint x="390" y="360" as="targetPoint" />
          </mxGeometry>
        </mxCell>
        <mxCell id="8np5I3TippKVZLdokush-84" value="" style="endArrow=none;html=1;rounded=0;exitX=1;exitY=0.5;exitDx=0;exitDy=0;entryX=0;entryY=0.5;entryDx=0;entryDy=0;" parent="1" source="8np5I3TippKVZLdokush-61" target="8np5I3TippKVZLdokush-69" edge="1">
          <mxGeometry relative="1" as="geometry">
            <mxPoint x="950" y="262.5" as="sourcePoint" />
            <mxPoint x="1110" y="262.5" as="targetPoint" />
          </mxGeometry>
        </mxCell>
        <mxCell id="8np5I3TippKVZLdokush-86" value="" style="endArrow=none;html=1;rounded=0;exitX=0.75;exitY=1;exitDx=0;exitDy=0;entryX=0;entryY=0.5;entryDx=0;entryDy=0;" parent="1" source="8np5I3TippKVZLdokush-59" target="8np5I3TippKVZLdokush-68" edge="1">
          <mxGeometry relative="1" as="geometry">
            <mxPoint x="375.2500000000002" y="412.5" as="sourcePoint" />
            <mxPoint x="667.75" y="426.25" as="targetPoint" />
          </mxGeometry>
        </mxCell>
        <mxCell id="8np5I3TippKVZLdokush-87" value="PK" style="text;html=1;align=center;verticalAlign=middle;resizable=0;points=[];autosize=1;strokeColor=none;fillColor=none;" parent="1" vertex="1">
          <mxGeometry x="422.5" y="420" width="40" height="30" as="geometry" />
        </mxCell>
        <mxCell id="8np5I3TippKVZLdokush-88" value="PK" style="text;html=1;align=center;verticalAlign=middle;resizable=0;points=[];autosize=1;strokeColor=none;fillColor=none;" parent="1" vertex="1">
          <mxGeometry x="1130" y="400" width="40" height="30" as="geometry" />
        </mxCell>
        <mxCell id="8np5I3TippKVZLdokush-89" value="M UK1" style="text;html=1;align=center;verticalAlign=middle;resizable=0;points=[];autosize=1;strokeColor=none;fillColor=none;" parent="1" vertex="1">
          <mxGeometry x="400" y="440" width="60" height="30" as="geometry" />
        </mxCell>
        <mxCell id="8np5I3TippKVZLdokush-90" value="cpf" style="ellipse;whiteSpace=wrap;html=1;" parent="1" vertex="1">
          <mxGeometry x="1110" y="423.75" width="30" height="20" as="geometry" />
        </mxCell>
        <mxCell id="8np5I3TippKVZLdokush-91" value="rg" style="ellipse;whiteSpace=wrap;html=1;" parent="1" vertex="1">
          <mxGeometry x="1110" y="447.5" width="30" height="20" as="geometry" />
        </mxCell>
        <mxCell id="8np5I3TippKVZLdokush-93" value="" style="endArrow=none;html=1;rounded=0;exitX=1;exitY=0.5;exitDx=0;exitDy=0;entryX=0;entryY=0.5;entryDx=0;entryDy=0;" parent="1" source="8np5I3TippKVZLdokush-61" target="8np5I3TippKVZLdokush-91" edge="1">
          <mxGeometry relative="1" as="geometry">
            <mxPoint x="920" y="262.5" as="sourcePoint" />
            <mxPoint x="1080" y="262.5" as="targetPoint" />
          </mxGeometry>
        </mxCell>
        <mxCell id="8np5I3TippKVZLdokush-94" value="" style="endArrow=none;html=1;rounded=0;exitX=1;exitY=0.5;exitDx=0;exitDy=0;entryX=0;entryY=0.5;entryDx=0;entryDy=0;" parent="1" source="8np5I3TippKVZLdokush-61" target="8np5I3TippKVZLdokush-90" edge="1">
          <mxGeometry relative="1" as="geometry">
            <mxPoint x="920" y="262.5" as="sourcePoint" />
            <mxPoint x="1080" y="262.5" as="targetPoint" />
          </mxGeometry>
        </mxCell>
        <mxCell id="8np5I3TippKVZLdokush-95" value="" style="endArrow=none;html=1;rounded=0;exitX=1;exitY=0.5;exitDx=0;exitDy=0;entryX=0;entryY=0.5;entryDx=0;entryDy=0;" parent="1" source="8np5I3TippKVZLdokush-61" target="8np5I3TippKVZLdokush-158" edge="1">
          <mxGeometry relative="1" as="geometry">
            <mxPoint x="920" y="262.5" as="sourcePoint" />
            <mxPoint x="1110" y="483" as="targetPoint" />
          </mxGeometry>
        </mxCell>
        <mxCell id="8np5I3TippKVZLdokush-96" value="Denúncia" style="whiteSpace=wrap;html=1;" parent="1" vertex="1">
          <mxGeometry x="310" y="-20" width="120" height="60" as="geometry" />
        </mxCell>
        <mxCell id="8np5I3TippKVZLdokush-97" value="Gerencia" style="shape=associativeEntity;whiteSpace=wrap;html=1;align=center;" parent="1" vertex="1">
          <mxGeometry x="330" y="220" width="80" height="50" as="geometry" />
        </mxCell>
        <mxCell id="8np5I3TippKVZLdokush-98" value="status" style="ellipse;whiteSpace=wrap;html=1;" parent="1" vertex="1">
          <mxGeometry x="225" y="235" width="50" height="20" as="geometry" />
        </mxCell>
        <mxCell id="8np5I3TippKVZLdokush-100" value="[&#39;Pendente&#39;,&#39;Em analise&#39;,&#39;Em andamento&#39;,&#39;Resolvido&#39;] CK" style="text;html=1;align=center;verticalAlign=middle;resizable=0;points=[];autosize=1;strokeColor=none;fillColor=none;" parent="1" vertex="1">
          <mxGeometry x="10" y="210" width="320" height="30" as="geometry" />
        </mxCell>
        <mxCell id="8np5I3TippKVZLdokush-101" value="" style="endArrow=none;html=1;rounded=0;entryX=0;entryY=0.5;entryDx=0;entryDy=0;exitX=1;exitY=0.5;exitDx=0;exitDy=0;" parent="1" source="8np5I3TippKVZLdokush-98" target="8np5I3TippKVZLdokush-97" edge="1">
          <mxGeometry relative="1" as="geometry">
            <mxPoint x="273" y="280" as="sourcePoint" />
            <mxPoint x="307.5" y="380" as="targetPoint" />
          </mxGeometry>
        </mxCell>
        <mxCell id="8np5I3TippKVZLdokush-104" value="" style="endArrow=none;html=1;rounded=0;exitX=0.5;exitY=0;exitDx=0;exitDy=0;entryX=0.5;entryY=1;entryDx=0;entryDy=0;" parent="1" source="8np5I3TippKVZLdokush-59" target="8np5I3TippKVZLdokush-97" edge="1">
          <mxGeometry relative="1" as="geometry">
            <mxPoint x="-140" y="370" as="sourcePoint" />
            <mxPoint x="20" y="370" as="targetPoint" />
          </mxGeometry>
        </mxCell>
        <mxCell id="8np5I3TippKVZLdokush-105" value="N" style="text;html=1;align=center;verticalAlign=middle;resizable=0;points=[];autosize=1;strokeColor=none;fillColor=none;" parent="1" vertex="1">
          <mxGeometry x="367.5" y="280" width="30" height="30" as="geometry" />
        </mxCell>
        <mxCell id="8np5I3TippKVZLdokush-106" value="" style="endArrow=none;html=1;rounded=0;exitX=0.5;exitY=0;exitDx=0;exitDy=0;entryX=0.5;entryY=1;entryDx=0;entryDy=0;" parent="1" source="8np5I3TippKVZLdokush-97" target="8np5I3TippKVZLdokush-96" edge="1">
          <mxGeometry relative="1" as="geometry">
            <mxPoint x="140" y="370" as="sourcePoint" />
            <mxPoint x="300" y="370" as="targetPoint" />
            <Array as="points" />
          </mxGeometry>
        </mxCell>
        <mxCell id="8np5I3TippKVZLdokush-107" value="N" style="text;html=1;align=center;verticalAlign=middle;resizable=0;points=[];autosize=1;strokeColor=none;fillColor=none;" parent="1" vertex="1">
          <mxGeometry x="367.5" y="190" width="30" height="30" as="geometry" />
        </mxCell>
        <mxCell id="8np5I3TippKVZLdokush-108" value="Secretaria" style="whiteSpace=wrap;html=1;" parent="1" vertex="1">
          <mxGeometry x="810" y="180" width="90" height="40" as="geometry" />
        </mxCell>
        <mxCell id="8np5I3TippKVZLdokush-109" value="Pertence a" style="rhombus;whiteSpace=wrap;html=1;" parent="1" vertex="1">
          <mxGeometry x="815" y="290" width="80" height="60" as="geometry" />
        </mxCell>
        <mxCell id="8np5I3TippKVZLdokush-110" value="" style="endArrow=none;html=1;rounded=0;exitX=1;exitY=0.5;exitDx=0;exitDy=0;entryX=0.5;entryY=1;entryDx=0;entryDy=0;" parent="1" source="8np5I3TippKVZLdokush-59" target="8np5I3TippKVZLdokush-109" edge="1">
          <mxGeometry relative="1" as="geometry">
            <mxPoint x="300" y="370" as="sourcePoint" />
            <mxPoint x="460" y="370" as="targetPoint" />
            <Array as="points">
              <mxPoint x="855" y="380" />
            </Array>
          </mxGeometry>
        </mxCell>
        <mxCell id="8np5I3TippKVZLdokush-111" value="" style="endArrow=none;html=1;rounded=0;exitX=0.5;exitY=1;exitDx=0;exitDy=0;entryX=0.5;entryY=0;entryDx=0;entryDy=0;" parent="1" source="8np5I3TippKVZLdokush-108" target="8np5I3TippKVZLdokush-109" edge="1">
          <mxGeometry relative="1" as="geometry">
            <mxPoint x="625" y="370" as="sourcePoint" />
            <mxPoint x="785" y="370" as="targetPoint" />
          </mxGeometry>
        </mxCell>
        <mxCell id="8np5I3TippKVZLdokush-112" value="1" style="text;html=1;align=center;verticalAlign=middle;resizable=0;points=[];autosize=1;strokeColor=none;fillColor=none;" parent="1" vertex="1">
          <mxGeometry x="855" y="260" width="30" height="30" as="geometry" />
        </mxCell>
        <mxCell id="8np5I3TippKVZLdokush-113" value="N" style="text;html=1;align=center;verticalAlign=middle;resizable=0;points=[];autosize=1;strokeColor=none;fillColor=none;" parent="1" vertex="1">
          <mxGeometry x="432.5" y="378.75" width="30" height="30" as="geometry" />
        </mxCell>
        <mxCell id="8np5I3TippKVZLdokush-115" value="" style="endArrow=none;html=1;rounded=0;exitX=0.597;exitY=1.008;exitDx=0;exitDy=0;entryX=0;entryY=0;entryDx=0;entryDy=0;exitPerimeter=0;" parent="1" source="8np5I3TippKVZLdokush-59" target="8np5I3TippKVZLdokush-70" edge="1">
          <mxGeometry relative="1" as="geometry">
            <mxPoint x="411" y="410" as="sourcePoint" />
            <mxPoint x="412" y="445" as="targetPoint" />
          </mxGeometry>
        </mxCell>
        <mxCell id="8np5I3TippKVZLdokush-116" value="id" style="ellipse;whiteSpace=wrap;html=1;" parent="1" vertex="1">
          <mxGeometry x="915" y="210" width="30" height="20" as="geometry" />
        </mxCell>
        <mxCell id="8np5I3TippKVZLdokush-119" value="PK" style="text;html=1;align=center;verticalAlign=middle;resizable=0;points=[];autosize=1;strokeColor=none;fillColor=none;" parent="1" vertex="1">
          <mxGeometry x="940" y="205" width="40" height="30" as="geometry" />
        </mxCell>
        <mxCell id="8np5I3TippKVZLdokush-120" value="Nome" style="ellipse;whiteSpace=wrap;html=1;" parent="1" vertex="1">
          <mxGeometry x="915" y="230" width="50" height="20" as="geometry" />
        </mxCell>
        <mxCell id="8np5I3TippKVZLdokush-121" value="M" style="text;html=1;align=center;verticalAlign=middle;resizable=0;points=[];autosize=1;strokeColor=none;fillColor=none;" parent="1" vertex="1">
          <mxGeometry x="965" y="225" width="30" height="30" as="geometry" />
        </mxCell>
        <mxCell id="8np5I3TippKVZLdokush-122" value="&lt;u&gt;Municipio&lt;/u&gt;" style="ellipse;whiteSpace=wrap;html=1;" parent="1" vertex="1">
          <mxGeometry x="915" y="250" width="60" height="20" as="geometry" />
        </mxCell>
        <mxCell id="8np5I3TippKVZLdokush-123" value="" style="endArrow=none;html=1;rounded=0;exitX=0.75;exitY=1;exitDx=0;exitDy=0;entryX=0;entryY=0.5;entryDx=0;entryDy=0;" parent="1" source="8np5I3TippKVZLdokush-108" target="8np5I3TippKVZLdokush-122" edge="1">
          <mxGeometry relative="1" as="geometry">
            <mxPoint x="925" y="370" as="sourcePoint" />
            <mxPoint x="1085" y="370" as="targetPoint" />
          </mxGeometry>
        </mxCell>
        <mxCell id="8np5I3TippKVZLdokush-124" value="" style="endArrow=none;html=1;rounded=0;exitX=0.913;exitY=1.029;exitDx=0;exitDy=0;exitPerimeter=0;entryX=0;entryY=0.5;entryDx=0;entryDy=0;" parent="1" source="8np5I3TippKVZLdokush-108" target="8np5I3TippKVZLdokush-120" edge="1">
          <mxGeometry relative="1" as="geometry">
            <mxPoint x="925" y="370" as="sourcePoint" />
            <mxPoint x="1085" y="370" as="targetPoint" />
          </mxGeometry>
        </mxCell>
        <mxCell id="8np5I3TippKVZLdokush-125" value="" style="endArrow=none;html=1;rounded=0;exitX=1;exitY=1;exitDx=0;exitDy=0;entryX=0;entryY=0.5;entryDx=0;entryDy=0;" parent="1" source="8np5I3TippKVZLdokush-108" target="8np5I3TippKVZLdokush-116" edge="1">
          <mxGeometry relative="1" as="geometry">
            <mxPoint x="925" y="370" as="sourcePoint" />
            <mxPoint x="925" y="270" as="targetPoint" />
          </mxGeometry>
        </mxCell>
        <mxCell id="8np5I3TippKVZLdokush-126" value="Trabalha em" style="rhombus;whiteSpace=wrap;html=1;" parent="1" vertex="1">
          <mxGeometry x="505" y="260" width="80" height="80" as="geometry" />
        </mxCell>
        <mxCell id="8np5I3TippKVZLdokush-128" value="Municipio" style="whiteSpace=wrap;html=1;" parent="1" vertex="1">
          <mxGeometry x="495" y="180" width="100" height="40" as="geometry" />
        </mxCell>
        <mxCell id="8np5I3TippKVZLdokush-129" value="" style="endArrow=none;html=1;rounded=0;exitX=1;exitY=0.25;exitDx=0;exitDy=0;entryX=0.5;entryY=1;entryDx=0;entryDy=0;" parent="1" source="8np5I3TippKVZLdokush-59" target="8np5I3TippKVZLdokush-126" edge="1">
          <mxGeometry relative="1" as="geometry">
            <mxPoint x="430" y="400" as="sourcePoint" />
            <mxPoint x="510" y="370" as="targetPoint" />
            <Array as="points">
              <mxPoint x="545" y="370" />
            </Array>
          </mxGeometry>
        </mxCell>
        <mxCell id="8np5I3TippKVZLdokush-130" value="" style="endArrow=none;html=1;rounded=0;exitX=0.5;exitY=1;exitDx=0;exitDy=0;entryX=0.5;entryY=0;entryDx=0;entryDy=0;" parent="1" source="8np5I3TippKVZLdokush-128" target="8np5I3TippKVZLdokush-126" edge="1">
          <mxGeometry relative="1" as="geometry">
            <mxPoint x="465" y="400" as="sourcePoint" />
            <mxPoint x="625" y="400" as="targetPoint" />
          </mxGeometry>
        </mxCell>
        <mxCell id="8np5I3TippKVZLdokush-131" value="id" style="ellipse;whiteSpace=wrap;html=1;" parent="1" vertex="1">
          <mxGeometry x="595" y="220" width="30" height="20" as="geometry" />
        </mxCell>
        <mxCell id="8np5I3TippKVZLdokush-134" value="" style="endArrow=none;html=1;rounded=0;entryX=0;entryY=0.5;entryDx=0;entryDy=0;exitX=0.913;exitY=1.008;exitDx=0;exitDy=0;exitPerimeter=0;" parent="1" source="8np5I3TippKVZLdokush-128" target="8np5I3TippKVZLdokush-131" edge="1">
          <mxGeometry relative="1" as="geometry">
            <mxPoint x="584" y="222" as="sourcePoint" />
            <mxPoint x="650" y="400" as="targetPoint" />
          </mxGeometry>
        </mxCell>
        <mxCell id="8np5I3TippKVZLdokush-135" value="nome" style="ellipse;whiteSpace=wrap;html=1;" parent="1" vertex="1">
          <mxGeometry x="595" y="240" width="40" height="20" as="geometry" />
        </mxCell>
        <mxCell id="8np5I3TippKVZLdokush-136" value="estado" style="ellipse;whiteSpace=wrap;html=1;" parent="1" vertex="1">
          <mxGeometry x="595" y="260" width="40" height="20" as="geometry" />
        </mxCell>
        <mxCell id="8np5I3TippKVZLdokush-138" value="" style="endArrow=none;html=1;rounded=0;exitX=0.85;exitY=1;exitDx=0;exitDy=0;exitPerimeter=0;entryX=0;entryY=0.5;entryDx=0;entryDy=0;" parent="1" source="8np5I3TippKVZLdokush-128" target="8np5I3TippKVZLdokush-135" edge="1">
          <mxGeometry relative="1" as="geometry">
            <mxPoint x="490" y="400" as="sourcePoint" />
            <mxPoint x="650" y="400" as="targetPoint" />
          </mxGeometry>
        </mxCell>
        <mxCell id="8np5I3TippKVZLdokush-139" value="" style="endArrow=none;html=1;rounded=0;exitX=0.75;exitY=1;exitDx=0;exitDy=0;entryX=0;entryY=0.5;entryDx=0;entryDy=0;" parent="1" source="8np5I3TippKVZLdokush-128" target="8np5I3TippKVZLdokush-136" edge="1">
          <mxGeometry relative="1" as="geometry">
            <mxPoint x="490" y="400" as="sourcePoint" />
            <mxPoint x="650" y="400" as="targetPoint" />
          </mxGeometry>
        </mxCell>
        <mxCell id="8np5I3TippKVZLdokush-141" value="Faz parte de" style="shape=associativeEntity;whiteSpace=wrap;html=1;align=center;" parent="1" vertex="1">
          <mxGeometry x="660" y="170" width="90" height="60" as="geometry" />
        </mxCell>
        <mxCell id="8np5I3TippKVZLdokush-144" value="" style="endArrow=none;html=1;rounded=0;exitX=1;exitY=0.5;exitDx=0;exitDy=0;entryX=0;entryY=0.5;entryDx=0;entryDy=0;" parent="1" source="8np5I3TippKVZLdokush-128" target="8np5I3TippKVZLdokush-141" edge="1">
          <mxGeometry relative="1" as="geometry">
            <mxPoint x="550" y="420" as="sourcePoint" />
            <mxPoint x="710" y="420" as="targetPoint" />
          </mxGeometry>
        </mxCell>
        <mxCell id="8np5I3TippKVZLdokush-145" value="1" style="text;html=1;align=center;verticalAlign=middle;resizable=0;points=[];autosize=1;strokeColor=none;fillColor=none;" parent="1" vertex="1">
          <mxGeometry x="635" y="170" width="30" height="30" as="geometry" />
        </mxCell>
        <mxCell id="8np5I3TippKVZLdokush-151" value="N" style="text;html=1;align=center;verticalAlign=middle;resizable=0;points=[];autosize=1;strokeColor=none;fillColor=none;" parent="1" vertex="1">
          <mxGeometry x="750" y="170" width="30" height="30" as="geometry" />
        </mxCell>
        <mxCell id="8np5I3TippKVZLdokush-153" value="" style="endArrow=none;html=1;rounded=0;exitX=1;exitY=0.5;exitDx=0;exitDy=0;entryX=0.5;entryY=0;entryDx=0;entryDy=0;" parent="1" source="8np5I3TippKVZLdokush-96" target="8np5I3TippKVZLdokush-159" edge="1">
          <mxGeometry relative="1" as="geometry">
            <mxPoint x="490" y="270" as="sourcePoint" />
            <mxPoint x="545" y="40" as="targetPoint" />
            <Array as="points">
              <mxPoint x="545" y="10" />
            </Array>
          </mxGeometry>
        </mxCell>
        <mxCell id="8np5I3TippKVZLdokush-154" value="" style="endArrow=none;html=1;rounded=0;entryX=0.5;entryY=0;entryDx=0;entryDy=0;exitX=0.5;exitY=1;exitDx=0;exitDy=0;" parent="1" source="8np5I3TippKVZLdokush-159" target="8np5I3TippKVZLdokush-128" edge="1">
          <mxGeometry relative="1" as="geometry">
            <mxPoint x="545" y="110" as="sourcePoint" />
            <mxPoint x="650" y="270" as="targetPoint" />
          </mxGeometry>
        </mxCell>
        <mxCell id="8np5I3TippKVZLdokush-155" value="1" style="text;html=1;align=center;verticalAlign=middle;resizable=0;points=[];autosize=1;strokeColor=none;fillColor=none;" parent="1" vertex="1">
          <mxGeometry x="520" y="120" width="30" height="30" as="geometry" />
        </mxCell>
        <mxCell id="8np5I3TippKVZLdokush-156" value="N" style="text;html=1;align=center;verticalAlign=middle;resizable=0;points=[];autosize=1;strokeColor=none;fillColor=none;" parent="1" vertex="1">
          <mxGeometry x="520" y="20" width="30" height="30" as="geometry" />
        </mxCell>
        <mxCell id="8np5I3TippKVZLdokush-158" value="endereco_residencial" style="ellipse;shape=doubleEllipse;margin=3;whiteSpace=wrap;html=1;align=center;" parent="1" vertex="1">
          <mxGeometry x="1100" y="470" width="130" height="32.5" as="geometry" />
        </mxCell>
        <mxCell id="8np5I3TippKVZLdokush-159" value="Ocorre em" style="shape=associativeEntity;whiteSpace=wrap;html=1;align=center;" parent="1" vertex="1">
          <mxGeometry x="500" y="50" width="90" height="60" as="geometry" />
        </mxCell>
        <mxCell id="8np5I3TippKVZLdokush-161" value="PK" style="text;html=1;align=center;verticalAlign=middle;resizable=0;points=[];autosize=1;strokeColor=none;fillColor=none;" parent="1" vertex="1">
          <mxGeometry x="225" y="-30" width="40" height="30" as="geometry" />
        </mxCell>
        <mxCell id="8np5I3TippKVZLdokush-163" value="id" style="ellipse;whiteSpace=wrap;html=1;" parent="1" vertex="1">
          <mxGeometry x="260" y="-25" width="30" height="20" as="geometry" />
        </mxCell>
        <mxCell id="8np5I3TippKVZLdokush-164" value="M" style="text;html=1;align=center;verticalAlign=middle;resizable=0;points=[];autosize=1;strokeColor=none;fillColor=none;" parent="1" vertex="1">
          <mxGeometry x="200" y="-10" width="30" height="30" as="geometry" />
        </mxCell>
        <mxCell id="8np5I3TippKVZLdokush-165" value="descricao" style="ellipse;whiteSpace=wrap;html=1;" parent="1" vertex="1">
          <mxGeometry x="227.5" y="-5" width="65" height="20" as="geometry" />
        </mxCell>
        <mxCell id="8np5I3TippKVZLdokush-166" value="data_criacao" style="ellipse;whiteSpace=wrap;html=1;" parent="1" vertex="1">
          <mxGeometry x="212.5" y="15" width="80" height="20" as="geometry" />
        </mxCell>
        <mxCell id="8np5I3TippKVZLdokush-167" value="M" style="text;html=1;align=center;verticalAlign=middle;resizable=0;points=[];autosize=1;strokeColor=none;fillColor=none;" parent="1" vertex="1">
          <mxGeometry x="182.5" y="10" width="30" height="30" as="geometry" />
        </mxCell>
        <mxCell id="8np5I3TippKVZLdokush-169" value="localizacao" style="ellipse;whiteSpace=wrap;html=1;" parent="1" vertex="1">
          <mxGeometry x="212.5" y="35" width="80" height="20" as="geometry" />
        </mxCell>
        <mxCell id="8np5I3TippKVZLdokush-173" value="M" style="text;html=1;align=center;verticalAlign=middle;resizable=0;points=[];autosize=1;strokeColor=none;fillColor=none;" parent="1" vertex="1">
          <mxGeometry x="182.5" y="30" width="30" height="30" as="geometry" />
        </mxCell>
        <mxCell id="8np5I3TippKVZLdokush-175" value="endereco" style="ellipse;shape=doubleEllipse;margin=3;whiteSpace=wrap;html=1;align=center;" parent="1" vertex="1">
          <mxGeometry x="217.5" y="55" width="75" height="25" as="geometry" />
        </mxCell>
        <mxCell id="8np5I3TippKVZLdokush-177" value="foto/video" style="ellipse;whiteSpace=wrap;html=1;" parent="1" vertex="1">
          <mxGeometry x="222.5" y="80" width="70" height="20" as="geometry" />
        </mxCell>
        <mxCell id="8np5I3TippKVZLdokush-178" value="M" style="text;html=1;align=center;verticalAlign=middle;resizable=0;points=[];autosize=1;strokeColor=none;fillColor=none;" parent="1" vertex="1">
          <mxGeometry x="187.5" y="52.5" width="30" height="30" as="geometry" />
        </mxCell>
        <mxCell id="8np5I3TippKVZLdokush-179" value="&lt;u&gt;municipio_id&lt;/u&gt;" style="ellipse;whiteSpace=wrap;html=1;" parent="1" vertex="1">
          <mxGeometry x="212.5" y="100" width="80" height="20" as="geometry" />
        </mxCell>
        <mxCell id="8np5I3TippKVZLdokush-181" value="" style="endArrow=none;html=1;rounded=0;exitX=1;exitY=0.5;exitDx=0;exitDy=0;entryX=-0.017;entryY=0.411;entryDx=0;entryDy=0;entryPerimeter=0;" parent="1" source="8np5I3TippKVZLdokush-165" target="8np5I3TippKVZLdokush-96" edge="1">
          <mxGeometry relative="1" as="geometry">
            <mxPoint x="350" y="100" as="sourcePoint" />
            <mxPoint x="510" y="100" as="targetPoint" />
          </mxGeometry>
        </mxCell>
        <mxCell id="8np5I3TippKVZLdokush-182" value="" style="endArrow=none;html=1;rounded=0;exitX=1;exitY=0.5;exitDx=0;exitDy=0;entryX=0;entryY=0.75;entryDx=0;entryDy=0;" parent="1" source="8np5I3TippKVZLdokush-166" target="8np5I3TippKVZLdokush-96" edge="1">
          <mxGeometry relative="1" as="geometry">
            <mxPoint x="350" y="100" as="sourcePoint" />
            <mxPoint x="510" y="100" as="targetPoint" />
          </mxGeometry>
        </mxCell>
        <mxCell id="8np5I3TippKVZLdokush-183" value="" style="endArrow=none;html=1;rounded=0;exitX=1;exitY=0.5;exitDx=0;exitDy=0;entryX=0;entryY=0.75;entryDx=0;entryDy=0;" parent="1" source="8np5I3TippKVZLdokush-169" target="8np5I3TippKVZLdokush-96" edge="1">
          <mxGeometry relative="1" as="geometry">
            <mxPoint x="350" y="100" as="sourcePoint" />
            <mxPoint x="510" y="100" as="targetPoint" />
          </mxGeometry>
        </mxCell>
        <mxCell id="8np5I3TippKVZLdokush-184" value="" style="endArrow=none;html=1;rounded=0;exitX=1;exitY=0.5;exitDx=0;exitDy=0;entryX=0.25;entryY=1;entryDx=0;entryDy=0;" parent="1" source="8np5I3TippKVZLdokush-175" target="8np5I3TippKVZLdokush-96" edge="1">
          <mxGeometry relative="1" as="geometry">
            <mxPoint x="350" y="100" as="sourcePoint" />
            <mxPoint x="510" y="100" as="targetPoint" />
          </mxGeometry>
        </mxCell>
        <mxCell id="8np5I3TippKVZLdokush-185" value="" style="endArrow=none;html=1;rounded=0;exitX=1;exitY=0.5;exitDx=0;exitDy=0;entryX=0.386;entryY=1.022;entryDx=0;entryDy=0;entryPerimeter=0;" parent="1" source="8np5I3TippKVZLdokush-177" target="8np5I3TippKVZLdokush-96" edge="1">
          <mxGeometry relative="1" as="geometry">
            <mxPoint x="350" y="100" as="sourcePoint" />
            <mxPoint x="510" y="100" as="targetPoint" />
          </mxGeometry>
        </mxCell>
        <mxCell id="8np5I3TippKVZLdokush-186" value="" style="endArrow=none;html=1;rounded=0;exitX=1;exitY=0.5;exitDx=0;exitDy=0;entryX=0.372;entryY=1.022;entryDx=0;entryDy=0;entryPerimeter=0;" parent="1" source="8np5I3TippKVZLdokush-179" target="8np5I3TippKVZLdokush-96" edge="1">
          <mxGeometry relative="1" as="geometry">
            <mxPoint x="350" y="100" as="sourcePoint" />
            <mxPoint x="510" y="100" as="targetPoint" />
          </mxGeometry>
        </mxCell>
        <mxCell id="8np5I3TippKVZLdokush-187" value="" style="endArrow=none;html=1;rounded=0;exitX=1;exitY=0.5;exitDx=0;exitDy=0;entryX=0;entryY=0.25;entryDx=0;entryDy=0;" parent="1" source="8np5I3TippKVZLdokush-163" target="8np5I3TippKVZLdokush-96" edge="1">
          <mxGeometry relative="1" as="geometry">
            <mxPoint x="350" y="100" as="sourcePoint" />
            <mxPoint x="510" y="100" as="targetPoint" />
          </mxGeometry>
        </mxCell>
        <mxCell id="8np5I3TippKVZLdokush-188" value="" style="endArrow=none;html=1;rounded=0;exitX=1;exitY=0.5;exitDx=0;exitDy=0;entryX=0;entryY=0.5;entryDx=0;entryDy=0;" parent="1" source="8np5I3TippKVZLdokush-141" target="8np5I3TippKVZLdokush-108" edge="1">
          <mxGeometry relative="1" as="geometry">
            <mxPoint x="500" y="100" as="sourcePoint" />
            <mxPoint x="660" y="100" as="targetPoint" />
          </mxGeometry>
        </mxCell>
        <mxCell id="8np5I3TippKVZLdokush-190" value="" style="endArrow=none;html=1;rounded=0;exitX=0.5;exitY=0;exitDx=0;exitDy=0;entryX=1;entryY=0.5;entryDx=0;entryDy=0;" parent="1" source="8np5I3TippKVZLdokush-108" target="8np5I3TippKVZLdokush-194" edge="1">
          <mxGeometry relative="1" as="geometry">
            <mxPoint x="500" y="100" as="sourcePoint" />
            <mxPoint x="790" y="-5" as="targetPoint" />
            <Array as="points">
              <mxPoint x="855" y="-4" />
            </Array>
          </mxGeometry>
        </mxCell>
        <mxCell id="8np5I3TippKVZLdokush-191" value="" style="endArrow=none;html=1;rounded=0;exitX=1;exitY=0.25;exitDx=0;exitDy=0;entryX=0;entryY=0.5;entryDx=0;entryDy=0;" parent="1" source="8np5I3TippKVZLdokush-96" target="8np5I3TippKVZLdokush-194" edge="1">
          <mxGeometry relative="1" as="geometry">
            <mxPoint x="500" y="100" as="sourcePoint" />
            <mxPoint x="690" y="-5" as="targetPoint" />
          </mxGeometry>
        </mxCell>
        <mxCell id="8np5I3TippKVZLdokush-192" value="1" style="text;html=1;align=center;verticalAlign=middle;resizable=0;points=[];autosize=1;strokeColor=none;fillColor=none;" parent="1" vertex="1">
          <mxGeometry x="785" y="-35" width="30" height="30" as="geometry" />
        </mxCell>
        <mxCell id="8np5I3TippKVZLdokush-193" value="N" style="text;html=1;align=center;verticalAlign=middle;resizable=0;points=[];autosize=1;strokeColor=none;fillColor=none;" parent="1" vertex="1">
          <mxGeometry x="650" y="-35" width="30" height="30" as="geometry" />
        </mxCell>
        <mxCell id="8np5I3TippKVZLdokush-194" value="Enviada para" style="shape=associativeEntity;whiteSpace=wrap;html=1;align=center;" parent="1" vertex="1">
          <mxGeometry x="680" y="-42.5" width="100" height="77.5" as="geometry" />
        </mxCell>
        <mxCell id="-GaWdDXrTBctVu_z6Q3P-4" value="classificação" style="ellipse;whiteSpace=wrap;html=1;" vertex="1" parent="1">
          <mxGeometry x="212.5" y="120" width="80" height="20" as="geometry" />
        </mxCell>
        <mxCell id="-GaWdDXrTBctVu_z6Q3P-5" value="" style="endArrow=none;html=1;rounded=0;exitX=1;exitY=0.5;exitDx=0;exitDy=0;entryX=0.341;entryY=0.993;entryDx=0;entryDy=0;entryPerimeter=0;" edge="1" parent="1" source="-GaWdDXrTBctVu_z6Q3P-4" target="8np5I3TippKVZLdokush-96">
          <mxGeometry width="50" height="50" relative="1" as="geometry">
            <mxPoint x="730" y="10" as="sourcePoint" />
            <mxPoint x="780" y="-40" as="targetPoint" />
          </mxGeometry>
        </mxCell>
      </root>
    </mxGraphModel>
  </diagram>
</mxfile>
